Coordinates
version=1
nRows=19
nColumns=34
inDegrees=yes

Units are S.I. units (second, meters, Newtons, ...)
If the header above contains a line with 'inDegrees', this indicates whether rotational values are in degrees (yes) or radians (no).

endheader
time	pelvis_tilt	pelvis_list	pelvis_rotation	pelvis_tx	pelvis_ty	pelvis_tz	hip_flexion_r	hip_adduction_r	hip_rotation_r	knee_angle_r	ankle_angle_r	subtalar_angle_r	mtp_angle_r	hip_flexion_l	hip_adduction_l	hip_rotation_l	knee_angle_l	socket_flexion	socket_adduction	socket_rotation	socket_tx	socket_ty	socket_tz	pros_ankle_rx	pros_ankle_ry	pros_ankle_rz	pros_ankle_tx	pros_ankle_ty	pros_ankle_tz	foot_flex	lumbar_extension	lumbar_bending	lumbar_rotation
      0.30105000	      2.34807041	     -5.08917406	     -2.63194762	     -0.37737168	      1.04928633	      0.35535026	      8.16164604	      1.07574176	     -7.30251998	    -63.55672181	     -2.15834214	      9.93875964	     15.75902323	      6.70061622	     -4.48702454	    -11.35989259	     22.90491425	     -2.76847286	     -1.06616763	     10.08873759	      0.00000000	     -0.01472368	      0.00000000	      0.00000000	      0.00000000	      0.00000000	      0.00000000	      0.00000000	      0.00000000	      5.74172267	    -19.96924786	     -5.29319400	      3.24372967
      0.30523000	      2.43841863	     -5.20324578	     -2.54834169	     -0.37199716	      1.05008278	      0.35507823	      8.64145728	      1.19778443	     -7.43067342	    -63.52715752	     -1.21465325	      9.98950535	     15.83875191	      6.19018575	     -4.58794796	    -11.44259582	     22.78596129	     -2.81802049	     -1.07884881	     10.21723143	      0.00000000	     -0.01456255	      0.00000000	      0.00000000	      0.00000000	      0.00000000	      0.00000000	      0.00000000	      0.00000000	      5.89149147	    -20.01066278	     -5.11636884	      3.10066676
      0.30941000	      2.53552835	     -5.30503127	     -2.46491782	     -0.36661464	      1.05089428	      0.35482899	      9.08903819	      1.32617415	     -7.53434608	    -63.41956313	     -0.23477658	     10.07688977	     15.91386194	      5.66739028	     -4.67547767	    -11.52382795	     22.64239246	     -2.85311665	     -1.08684523	     10.35176210	      0.00000000	     -0.01439020	      0.00000000	      0.00000000	      0.00000000	      0.00000000	      0.00000000	      0.00000000	      0.00000000	      6.01632393	    -20.05559087	     -4.92998874	      2.94748116
      0.31359000	      2.66529978	     -5.41011663	     -2.41742889	     -0.36127723	      1.05176718	      0.35459499	      9.49820864	      1.43704033	     -7.63637346	    -63.25930938	      0.71147764	     10.31911500	     15.95044124	      5.07479007	     -4.75621451	    -11.64160583	     22.42372312	     -2.85214202	     -1.09616048	     10.45815434	      0.00000000	     -0.01425622	      0.00000000	      0.00000000	      0.00000000	      0.00000000	      0.00000000	      0.00000000	      0.00000000	      6.11304691	    -20.13290966	     -4.76353428	      2.75353974
      0.31777000	      2.73994904	     -5.50618600	     -2.31943063	     -0.35603302	      1.05250123	      0.35426960	      9.97203833	      1.51574094	     -7.82480829	    -63.05492892	      1.42923258	     10.32441726	     15.99310807	      4.60679063	     -4.83381969	    -11.68585740	     22.30496575	     -2.86503579	     -1.11106505	     10.55675408	      0.00000000	     -0.01401736	      0.00000000	      0.00000000	      0.00000000	      0.00000000	      0.00000000	      0.00000000	      0.00000000	      6.30148217	    -20.20356110	     -4.61130199	      2.68512198
      0.32195000	      2.82027635	     -5.63631184	     -2.23425648	     -0.35077642	      1.05326271	      0.35401707	     10.40688024	      1.67184614	     -7.96129752	    -62.77725573	      2.30523580	     10.38824854	     16.04366752	      4.10601715	     -4.94663433	    -11.73086803	     22.13610722	     -2.87634436	     -1.10801852	     10.64874507	      0.00000000	     -0.01387437	      0.00000000	      0.00000000	      0.00000000	      0.00000000	      0.00000000	      0.00000000	      0.00000000	      6.40269325	    -20.23817161	     -4.39695188	      2.55958079
      0.32613000	      2.90413939	     -5.75205187	     -2.16515043	     -0.34556850	      1.05400775	      0.35376262	     10.84174287	      1.80017776	     -8.09476841	    -62.45816552	      3.08819127	     10.51263766	     16.06853614	      3.59849328	     -5.04577031	    -11.78363542	     21.95359767	     -2.86053502	     -1.10187425	     10.73138629	      0.00000000	     -0.01372037	      0.00000000	      0.00000000	      0.00000000	      0.00000000	      0.00000000	      0.00000000	      0.00000000	      6.52479915	    -20.29764191	     -4.18891676	      2.42224003
      0.33031000	      3.03016903	     -5.86337060	     -2.11663477	     -0.34036528	      1.05483953	      0.35349048	     11.20891801	      1.90337875	     -8.23862409	    -62.06494100	      3.79677468	     10.77427307	     16.01726876	      3.00537648	     -5.12124045	    -11.84931643	     21.66591360	     -2.80683456	     -1.08193171	     10.77502658	      0.00000000	     -0.01358282	      0.00000000	      0.00000000	      0.00000000	      0.00000000	      0.00000000	      0.00000000	      0.00000000	      6.61846157	    -20.40548278	     -3.98099385	      2.25040155
      0.33449000	      3.13302774	     -5.98244105	     -2.03791833	     -0.33522178	      1.05557012	      0.35319002	     11.59162375	      2.02184316	     -8.41251982	    -61.63653636	      4.48634549	     10.89614821	     15.96332854	      2.46709742	     -5.20779805	    -11.86542194	     21.41977759	     -2.74195702	     -1.08389126	     10.82184096	      0.00000000	     -0.01345632	      0.00000000	      0.00000000	      0.00000000	      0.00000000	      0.00000000	      0.00000000	      0.00000000	      6.74362041	    -20.50176424	     -3.78866097	      2.14360542
      0.33868000	      3.17504115	     -5.99641653	     -2.02562835	     -0.33032587	      1.05618843	      0.35297821	     12.10011365	      2.02595919	     -8.51764373	    -61.22371183	      4.62218438	     10.88388994	     15.96292168	      2.10449163	     -5.19226320	    -11.86746371	     21.44628551	     -2.86419023	     -1.11017443	     10.80550668	      0.00000000	     -0.01295756	      0.00000000	      0.00000000	      0.00000000	      0.00000000	      0.00000000	      0.00000000	      0.00000000	      6.82517666	    -20.56071209	     -3.78250150	      2.13303155
      0.34286000	      3.20265096	     -6.22097560	     -1.86579200	     -0.32507608	      1.05682531	      0.35269241	     12.47625040	      2.29347272	     -8.76400993	    -60.62012025	      5.67274219	     10.92197279	     15.98635279	      1.66581426	     -5.42701025	    -11.90493316	     21.19830166	     -2.74396776	     -1.08671116	     10.95001170	      0.00000000	     -0.01295820	      0.00000000	      0.00000000	      0.00000000	      0.00000000	      0.00000000	      0.00000000	      0.00000000	      7.02543496	    -20.56882009	     -3.46091384	      2.00333942
      0.34704000	      3.24578442	     -6.23015135	     -1.88168493	     -0.32028846	      1.05736058	      0.35248532	     12.98415458	      2.28788224	     -8.85872839	    -60.16022493	      5.79043891	     10.92068708	     15.98144355	      1.30173084	     -5.40048504	    -11.90662562	     21.22833466	     -2.87253884	     -1.12267591	     10.92436327	      0.00000000	     -0.01248438	      0.00000000	      0.00000000	      0.00000000	      0.00000000	      0.00000000	      0.00000000	      0.00000000	      7.08510096	    -20.62958249	     -3.43864975	      1.98767510
      0.35122000	      3.29102289	     -6.51408975	     -1.73086679	     -0.31494852	      1.05802264	      0.35220993	     13.26478030	      2.63685864	     -9.09336990	    -59.38832711	      6.76995779	     11.08705177	     15.93600354	      0.80431662	     -5.69781793	    -11.98363440	     20.90445363	     -2.72878798	     -1.08667595	     11.04420787	      0.00000000	     -0.01258086	      0.00000000	      0.00000000	      0.00000000	      0.00000000	      0.00000000	      0.00000000	      0.00000000	      7.23912403	    -20.64390823	     -2.97317304	      1.79069549
      0.35540000	      3.32037929	     -6.56158394	     -1.68786967	     -0.31003260	      1.05860171	      0.35200789	     13.68138427	      2.70446405	     -9.21700441	    -58.72129167	      7.03605185	     11.13729498	     15.89146852	      0.44174472	     -5.72183958	    -12.01720208	     20.84791780	     -2.77064089	     -1.10847512	     11.04598693	      0.00000000	     -0.01214816	      0.00000000	      0.00000000	      0.00000000	      0.00000000	      0.00000000	      0.00000000	      0.00000000	      7.34672956	    -20.73065998	     -2.89573891	      1.73642737
      0.35958000	      3.75305062	     -6.70840872	     -1.61446107	     -0.30476634	      1.05987886	      0.35165195	     13.54320400	      2.83323950	     -9.42197945	    -57.91651188	      7.76794253	     11.57626797	     14.56518196	     -0.76592508	     -5.75819913	    -12.01360441	     19.78141082	     -2.24627085	     -0.97121474	     11.00296384	      0.00000000	     -0.01240237	      0.00000000	      0.00000000	      0.00000000	      0.00000000	      0.00000000	      0.00000000	      0.00000000	      7.47075958	    -21.23215399	     -2.61087335	      1.56824903
      0.36376000	      3.73270252	     -6.76764262	     -1.54405295	     -0.29985541	      1.06032840	      0.35148609	     13.96900154	      2.93410903	     -9.56088071	    -57.15837709	      8.08815008	     11.56706361	     14.54629407	     -1.05389617	     -5.80832971	    -12.01951162	     19.75585577	     -2.28938870	     -0.99502258	     11.02609390	      0.00000000	     -0.01196378	      0.00000000	      0.00000000	      0.00000000	      0.00000000	      0.00000000	      0.00000000	      0.00000000	      7.58970295	    -21.25074469	     -2.54996697	      1.53209243
      0.36794000	      3.74462210	     -6.98744960	     -1.44324541	     -0.29476539	      1.06077417	      0.35125981	     14.29798985	      3.20335235	     -9.77558805	    -56.30429248	      8.59409484	     11.58587684	     14.45544790	     -1.44742436	     -6.04124520	    -12.04788317	     19.60151521	     -2.27246314	     -0.97863604	     11.10732902	      0.00000000	     -0.01189655	      0.00000000	      0.00000000	      0.00000000	      0.00000000	      0.00000000	      0.00000000	      0.00000000	      7.69852458	    -21.22205481	     -2.17863530	      1.41062443
      0.37213000	      3.73157826	     -6.99409931	     -1.41019569	     -0.28996490	      1.06120273	      0.35108172	     14.70631897	      3.23948749	     -9.88121746	    -55.49057573	      8.79233394	     11.58213528	     14.42231736	     -1.72175817	     -6.02508058	    -12.08961829	     19.61350788	     -2.32076186	     -1.01276490	     11.08675598	      0.00000000	     -0.01135442	      0.00000000	      0.00000000	      0.00000000	      0.00000000	      0.00000000	      0.00000000	      0.00000000	      7.79430610	    -21.30130301	     -2.15223986	      1.38480059
      0.37631000	      3.84196145	     -7.31573736	     -1.25826434	     -0.28475205	      1.06177469	      0.35085502	     14.82756066	      3.65182596	    -10.11585539	    -54.44394437	      9.22957944	     11.58394111	     14.10868319	     -2.28282337	     -6.37770514	    -12.14343542	     19.32595703	     -2.25780398	     -0.98893068	     11.27631158	      0.00000000	     -0.01148284	      0.00000000	      0.00000000	      0.00000000	      0.00000000	      0.00000000	      0.00000000	      0.00000000	      7.93129882	    -21.38262488	     -1.64728156	      1.19640312
